<svg xmlns="http://www.w3.org/2000/svg" viewBox="0 0 960 540" role="img" aria-label="Pin &amp; Paper title slide preview" data-template-slug="pin-and-paper" data-preview-family="pin" data-contract-hash="e03ef521edc67b0750e1c6986a3089d62128c287c3cd616605ba3aae6390f127" data-display-font="Space Grotesk" data-body-font="Caveat">
<title>Pin &amp; Paper title slide preview</title>
<defs><pattern id="paper" width="18" height="18" patternUnits="userSpaceOnUse"><circle cx="2" cy="2" r="1" fill="#1F3A8A" fill-opacity=".08"/></pattern></defs><rect width="960" height="540" fill="#EFE56A"/><rect width="960" height="540" fill="url(#paper)"/><rect x="70" y="62" width="620" height="386" rx="4" fill="#F8F1D6" stroke="#1F3A8A" stroke-width="2"/><rect x="78" y="70" width="620" height="386" rx="4" fill="none" stroke="#2D4FB8" stroke-width="5"/><text x="110" y="112" fill="#1F3A8A" font-family="DM Mono,Noto Sans SC,monospace" font-size="15" letter-spacing="2" >ARCHIVE / PIN 01</text><text x="108" y="254" fill="#1F3A8A" font-family="Space Grotesk,Noto Sans SC,sans-serif" font-size="76" font-weight="800" letter-spacing="-2" ><tspan x="108" dy="0">AGENT</tspan><tspan x="108" dy="68.4">SKILLS</tspan></text><path d="M778 106c64 0 92 58 56 108l-96 134c-22 30-68 14-62-22 2-12 8-22 18-30l90-84c18-18 6-48-20-48-14 0-26 8-34 20" fill="none" stroke="#1F3A8A" stroke-width="9" stroke-linecap="round"/>
</svg>
