<svg xmlns="http://www.w3.org/2000/svg" viewBox="0 0 960 540"><rect width="960" height="540" fill="#071a2b"/><g stroke="#4de3ff" stroke-width="2" opacity=".35"><path d="M0 80h960M0 160h960M0 240h960M0 320h960M0 400h960M0 480h960M80 0v540M160 0v540M240 0v540M320 0v540M400 0v540M480 0v540M560 0v540M640 0v540M720 0v540M800 0v540M880 0v540"/></g><g fill="#0d2942" stroke="#4de3ff" stroke-width="3"><rect x="610" y="90" width="180" height="65"/><rect x="470" y="265" width="180" height="65"/><rect x="740" y="390" width="145" height="65"/></g><g stroke="#4de3ff" stroke-width="4" fill="none"><path d="M610 122H500v175h-30"/><path d="M650 297h120v125"/></g><text x="70" y="90" fill="#4de3ff" font-family="monospace" font-size="18">X.024 / Y.108</text><text x="70" y="265" fill="#e8f5ff" font-family="Arial" font-size="74" font-weight="700">BUILD</text><text x="70" y="340" fill="#e8f5ff" font-family="Arial" font-size="74" font-weight="700">SYSTEMS</text></svg>
