<svg xmlns="http://www.w3.org/2000/svg" viewBox="0 0 960 540" role="img" aria-label="Notebook Tabs title slide preview" data-style-id="notebook-tabs" data-preview-family="tabbed-paper" data-contract-hash="cfa774b98e08d4be72689c424c46b7373bb729077ab73fdd3294b0962409dda0" data-display-font="Bodoni Moda" data-body-font="DM Sans" data-signature-elements="paper container | colorful section tabs | binder holes">
<title>Notebook Tabs title slide preview</title>
<defs><filter id="paper-shadow" x="-20%" y="-20%" width="140%" height="140%"><feDropShadow dx="0" dy="12" stdDeviation="12" flood-color="#000000" flood-opacity=".24"/></filter></defs><rect width="960" height="540" fill="#2d2d2d"/><rect x="86" y="38" width="776" height="464" rx="5" fill="#f8f6f1" filter="url(#paper-shadow)"/><g fill="#2d2d2d"><circle cx="112" cy="110" r="8"/><circle cx="112" cy="174" r="8"/><circle cx="112" cy="238" r="8"/><circle cx="112" cy="302" r="8"/><circle cx="112" cy="366" r="8"/><circle cx="112" cy="430" r="8"/></g><g font-family="DM Sans,sans-serif" font-size="11" font-weight="700" fill="#1a1a1a"><rect x="862" y="76" width="50" height="72" fill="#98d4bb"/><text x="894" y="136" transform="rotate(-90 894 136)">IDEAS</text><rect x="862" y="158" width="50" height="72" fill="#c7b8ea"/><text x="894" y="220" transform="rotate(-90 894 220)">NOTES</text><rect x="862" y="240" width="50" height="72" fill="#f4b8c5"/><text x="894" y="302" transform="rotate(-90 894 302)">DRAFT</text><rect x="862" y="322" width="50" height="72" fill="#a8d8ea"/><text x="894" y="384" transform="rotate(-90 894 384)">BUILD</text><rect x="862" y="404" width="50" height="72" fill="#ffe6a7"/><text x="894" y="466" transform="rotate(-90 894 466)">SHARE</text></g><text x="158" y="112" fill="#1a1a1a" font-family="DM Sans,sans-serif" font-size="14" letter-spacing="2">FIELD NOTES / 01</text><path d="M158 138H814" stroke="#1a1a1a" stroke-opacity=".22"/><text x="158" y="258" fill="#1a1a1a" font-family="Bodoni Moda,serif" font-size="78" font-weight="700"><tspan x="158">Make Room</tspan><tspan x="158" dy="76" font-style="italic">to Think.</tspan></text><text x="158" y="440" fill="#1a1a1a" fill-opacity=".58" font-family="DM Sans,sans-serif" font-size="18">AN ORGANIZED PLACE FOR UNFINISHED IDEAS</text>
</svg>
